<?xml version="1.0" encoding="UTF-8"?>
<!DOCTYPE svg PUBLIC "-//W3C//DTD SVG 1.1//EN" "http://www.w3.org/Graphics/SVG/1.1/DTD/svg11.dtd">
<!-- Creator: CorelDRAW X7 -->
<svg xmlns="http://www.w3.org/2000/svg" xml:space="preserve" width="100mm" height="100mm" version="1.1" style="shape-rendering:geometricPrecision; text-rendering:geometricPrecision; image-rendering:optimizeQuality; fill-rule:evenodd; clip-rule:evenodd"
viewBox="0 0 10000 10000"
 xmlns:xlink="http://www.w3.org/1999/xlink">
 <defs>
  <style type="text/css">
   <![CDATA[
    .fil1 {fill:none}
    .fil0 {fill:#FEFEFE}
    .fil2 {fill:#FEFEFE;fill-rule:nonzero}
   ]]>
  </style>
 </defs>
 <g id="Laag_x0020_1">
  <metadata id="CorelCorpID_0Corel-Layer"/>
  <g id="_2309108284608">
   <polygon class="fil0" points="2499,6037 3750,8018 5000,10000 2500,10000 0,10000 1250,8018 "/>
   <polygon class="fil0" points="7499,6037 8750,8018 10000,10000 7500,10000 5000,10000 6250,8018 "/>
  </g>
  <polyline class="fil1" points="0,7265 2499,3302 5000,7265 7499,3302 10000,7265 "/>
  <polygon class="fil2" points="0,6278 2499,2315 5000,6278 7499,2315 10000,6278 10000,8255 7499,4289 5000,8252 2499,4289 0,8250 "/>
  <path class="fil2" d="M0 2315l0 -1581c0,-195 59,-355 178,-479 119,-124 273,-186 463,-186 224,0 397,103 518,309 74,-112 153,-190 238,-238 85,-47 189,-71 313,-71 197,0 349,62 454,186 105,124 157,302 157,536l0 1524 -651 0 0 -1427c0,-69 -5,-115 -17,-137 -11,-23 -34,-34 -69,-34 -66,0 -98,54 -98,160l0 1438 -651 0 0 -1427c0,-68 -6,-114 -17,-137 -12,-23 -35,-34 -70,-34 -65,0 -97,57 -97,171l0 1427 -651 0zm4244 -704l-911 0c-12,-46 -19,-87 -19,-126 0,-53 9,-106 28,-157l305 0c-22,-120 -88,-180 -201,-180 -75,0 -136,31 -183,96 -47,63 -71,145 -71,245 0,104 23,188 68,253 46,64 106,96 180,96 59,0 117,-30 173,-90l342 411c-160,126 -337,189 -532,189 -238,0 -438,-80 -599,-240 -162,-160 -243,-357 -243,-593 0,-235 82,-433 245,-595 164,-161 364,-243 602,-243 232,0 428,79 586,238 158,158 237,352 237,584 0,23 -3,61 -7,112zm1675 704l-602 0 0 -904c0,-92 -37,-138 -112,-138 -74,0 -112,46 -112,138l0 904 -601 0 0 -893c0,-209 69,-385 207,-527 138,-143 307,-214 507,-214 229,0 412,82 550,249 108,129 163,309 163,540l0 845zm1353 -1578l0 633c-85,0 -143,15 -174,47 -32,31 -52,94 -60,187 -28,309 -148,527 -359,654 -113,66 -272,100 -478,100l-83 0 0 -635 27 0c96,0 164,-20 206,-60 41,-40 65,-111 71,-211 8,-164 24,-280 46,-346 22,-66 67,-132 133,-197 118,-115 281,-172 489,-172l182 0zm797 -23l0 1601 -601 0 0 -1601 601 0zm-297 -714c82,0 152,29 211,86 60,57 90,125 90,203 0,84 -28,153 -85,206 -56,54 -128,81 -216,81 -88,0 -160,-27 -217,-81 -56,-53 -84,-122 -84,-206 0,-78 30,-146 89,-203 60,-57 130,-86 212,-86zm1632 1578l596 -23c-17,231 -103,421 -258,570 -155,148 -344,223 -567,223 -235,0 -434,-82 -596,-246 -162,-164 -243,-364 -243,-601 0,-226 81,-419 245,-580 164,-160 360,-240 589,-240 200,0 377,63 530,189 153,126 248,287 286,483l-609 22c-52,-68 -118,-102 -198,-102 -69,0 -125,22 -169,67 -44,45 -66,102 -66,170 0,70 23,128 70,175 46,47 104,71 174,71 101,0 174,-59 216,-178z"/>
 </g>
</svg>
