<?xml version="1.0" encoding="UTF-8"?>
<!DOCTYPE svg PUBLIC "-//W3C//DTD SVG 1.1//EN" "http://www.w3.org/Graphics/SVG/1.1/DTD/svg11.dtd">
<!-- Creator: CorelDRAW X7 -->
<svg xmlns="http://www.w3.org/2000/svg" xml:space="preserve" width="100mm" height="100mm" version="1.1" style="shape-rendering:geometricPrecision; text-rendering:geometricPrecision; image-rendering:optimizeQuality; fill-rule:evenodd; clip-rule:evenodd"
viewBox="0 0 10000 10000"
 xmlns:xlink="http://www.w3.org/1999/xlink">
 <defs>
  <style type="text/css">
   <![CDATA[
    .fil0 {fill:#D9DADA}
   ]]>
  </style>
 </defs>
 <g id="Laag_x0020_1">
  <metadata id="CorelCorpID_0Corel-Layer"/>
  <g id="_1553758090864">
   <path class="fil0" d="M6852 7387l-50 431c-65,-18 -169,-70 -229,-99l-191 -85c-7,-4 -9,-5 -15,-9 -10,-8 -5,-3 -13,-13 53,-51 103,-139 78,-251 -20,-89 -98,-152 -187,-160 -197,-17 -294,271 -174,413 46,53 670,327 823,392 37,15 86,44 120,53l87 -699c-37,-9 -131,-54 -167,-71 -66,-32 -465,-216 -506,-226 16,-32 41,-49 60,-90 143,-294 -268,-485 -371,-180 -88,262 113,321 309,404 71,30 141,66 211,97 48,20 176,84 215,93z"/>
   <path class="fil0" d="M6854 4762c18,30 88,107 114,131l366 387c-67,44 -122,66 -155,145 -39,98 -9,167 43,222 137,146 307,13 352,-127 39,-120 -45,-209 -129,-296l-362 -393c13,-40 186,-335 202,-353 26,17 124,132 158,164l149 159c9,11 3,0 10,14 -40,28 -69,38 -100,72 -106,117 -76,275 50,337 169,84 372,-159 288,-318 -48,-91 -181,-203 -236,-271 -26,-32 -54,-66 -84,-94 -94,-89 -250,-283 -335,-354 -22,19 -138,240 -166,286 -53,90 -120,198 -165,289z"/>
   <path class="fil0" d="M3498 7192l281 631c-45,22 -129,22 -191,96 -119,142 12,426 258,289 25,-14 67,-47 81,-66 103,-149 4,-279 -57,-420l-182 -394c22,-17 52,-47 74,-66 27,-25 49,-47 75,-71l155 -134c14,16 189,402 193,422 -213,10 -301,220 -188,355 117,142 369,4 383,-157 8,-92 -144,-388 -184,-473l-151 -334c-19,-38 -38,-79 -52,-118 -87,60 -167,146 -247,217 -21,18 -41,37 -61,55 -24,22 -40,28 -63,52 -43,43 -88,72 -124,116z"/>
   <path class="fil0" d="M4031 2989c21,30 153,324 162,365l-447 53c7,-93 6,-168 -47,-229 -68,-78 -199,-110 -298,0 -53,58 -43,175 -10,239 17,33 39,66 62,83 72,52 135,44 234,32 87,-11 176,-15 263,-28 89,-13 172,-22 262,-31 89,-8 182,-28 269,-32 -15,-51 -224,-492 -263,-595l-682 81c58,-468 -524,-335 -353,5 78,156 186,130 374,111 101,-11 399,-56 474,-54z"/>
   <path class="fil0" d="M8493 5146l627 22c16,-62 199,-599 218,-620 128,106 296,70 345,-57 66,-167 -100,-272 -256,-249 -146,22 -169,189 -218,314 -29,73 -118,354 -140,392l-383 -8 142 -412c58,26 123,84 228,50 170,-54 185,-285 10,-344 -203,-69 -286,56 -338,233l-117 336c-27,76 -108,292 -118,343z"/>
   <path class="fil0" d="M4285 9421c-161,-145 -358,-58 -369,103 -12,187 271,247 367,151 41,-41 179,-348 207,-416 26,-64 182,-393 185,-424l-613 -72 -271 591c-19,-7 -53,-37 -85,-52 -27,-13 -76,-27 -112,-23 -267,30 -218,404 72,373 96,-11 130,-55 163,-115 68,-124 213,-486 256,-554 112,-4 258,36 378,41 -7,38 -164,382 -178,397z"/>
   <path class="fil0" d="M6069 0l-1110 0c44,248 222,223 381,195 172,-30 349,-74 524,-95 44,114 133,237 183,354 -38,22 -383,82 -451,89 6,-103 -7,-177 -70,-231 -54,-47 -138,-89 -229,-39 -165,92 -98,317 22,393 97,62 395,-18 513,-42 165,-34 351,-54 511,-97 -15,-45 -258,-480 -274,-527z"/>
   <path class="fil0" d="M921 385l41 648c-85,-9 -122,-27 -201,20 -189,113 -95,417 183,322 51,-18 107,-70 123,-116 33,-93 -23,-540 -24,-690 52,-35 112,-48 176,-73 53,-19 123,-54 180,-67l32 431c-88,-14 -152,-19 -216,32 -155,124 -64,304 63,323 82,13 174,-20 214,-61 96,-97 50,-309 38,-469 -12,-172 -23,-349 -32,-522 -27,2 -544,202 -577,222z"/>
   <path class="fil0" d="M5508 8824c19,-24 306,-193 368,-222 20,46 22,67 49,111 65,104 241,113 309,21 108,-149 -59,-355 -215,-330 -68,11 -159,75 -210,104 -69,40 -127,75 -195,114 -68,38 -125,74 -193,115 -31,19 -65,35 -98,55l-73 43c-6,4 -9,7 -13,11l449 422 560 -331c21,199 224,239 315,170 183,-139 -17,-461 -267,-329l-511 297c-21,-18 -47,-42 -70,-65 -73,-75 -82,-73 -137,-125 -29,-28 -39,-40 -68,-61z"/>
   <path class="fil0" d="M4967 8226c42,15 460,255 525,287 40,-20 301,-285 353,-330 22,-19 107,-94 111,-109 29,33 50,105 134,136 253,91 376,-272 81,-358 -134,-40 -221,80 -338,189l-279 266 -284 -154c-8,-5 -12,-6 -19,-12 -2,-1 -7,-6 -9,-7 -15,-15 0,3 -13,-15l151 -139c48,-46 104,-108 152,-147 30,42 26,54 64,87 125,106 256,61 307,-39 81,-156 -140,-344 -297,-259 -29,16 -201,172 -243,218l-237 225c-20,18 -143,132 -159,161z"/>
   <path class="fil0" d="M0 5689l522 183c-106,151 -83,308 55,358 169,61 279,-83 257,-251 -20,-156 -172,-178 -314,-230l-306 -109c-20,-8 -32,-13 -51,-19l-52 -21 15 -390c32,5 401,139 418,152 -25,48 -82,113 -53,224 21,77 71,125 155,139 176,30 280,-195 188,-343 -37,-60 -100,-83 -180,-113l-654 -229 0 649z"/>
   <path class="fil0" d="M0 3671l0 215c28,-21 263,-361 308,-415 47,9 385,120 407,137 -11,30 -112,154 -142,195l-138 198c-26,-19 -28,-32 -47,-51 -13,-12 -32,-24 -49,-35 -39,-26 -75,-41 -131,-41 -62,0 -93,13 -131,41 -36,28 -46,61 -77,97l0 125c56,78 35,73 121,127 52,33 140,49 209,28 103,-31 231,-257 317,-368l344 -480 -660 -221 -162 223c-13,18 -23,33 -40,52 -41,52 -86,134 -129,173z"/>
   <path class="fil0" d="M7438 6855l579 89c28,-77 94,-207 133,-279 26,-49 106,-229 135,-273l35 27c37,32 91,51 142,50 233,-3 248,-369 -62,-351 -125,8 -184,153 -234,271 -24,56 -57,116 -84,170 -15,30 -29,62 -42,89 -6,13 -14,27 -20,41l-28 47 -349 -55c6,-31 68,-152 85,-183 22,-40 75,-145 86,-184 40,21 94,91 204,73 75,-13 140,-70 150,-142 24,-170 -207,-267 -336,-167 -59,45 -238,457 -300,577 -24,46 -84,154 -94,200z"/>
   <path class="fil0" d="M1587 2700c-7,-86 -33,-129 -78,-171 -46,-42 -130,-53 -194,-22 -177,86 -63,426 192,346l344 -148c60,-24 118,-53 180,-74l229 269c-15,14 -353,158 -372,158 -4,-86 -45,-148 -95,-182 -122,-82 -347,33 -236,236 27,50 88,113 167,116 80,2 334,-120 411,-155 58,-26 372,-151 396,-174l-376 -436c-106,28 -504,232 -568,237z"/>
   <path class="fil0" d="M9122 9001c-145,-22 -318,-54 -462,-66 11,96 31,200 48,295 10,58 32,270 57,281l595 83c-24,59 -50,122 -21,198 74,199 400,131 323,-139 -40,-143 -154,-146 -313,-164l-390 -56c-21,-6 -9,-4 -16,-8l-58 -349c134,10 272,40 407,55 -27,73 -60,125 -10,218 34,63 97,97 172,92 156,-11 189,-222 95,-336 -49,-59 -109,-58 -197,-72 -75,-12 -153,-21 -230,-32z"/>
   <path class="fil0" d="M164 4905l559 159c26,-54 311,-467 329,-510 12,10 5,5 17,16 7,7 8,8 16,15 10,10 18,18 32,29 21,16 58,32 93,38 83,15 145,-34 173,-76 129,-191 -192,-395 -344,-191l-304 471c-52,-5 -279,-77 -348,-96l220 -336c48,38 90,103 191,95 78,-5 144,-51 163,-128 41,-170 -206,-290 -325,-186 -50,44 -146,194 -183,255l-232 353c-19,29 -37,62 -57,92z"/>
   <path class="fil0" d="M5979 4179l-351 52 60 -397c68,22 125,54 210,11 55,-28 103,-84 97,-168 -11,-159 -204,-188 -327,-108 -74,48 -98,319 -109,413 -18,155 -57,312 -70,469 91,-14 514,-66 566,-89l90 -594c66,18 104,55 191,22 208,-79 127,-385 -127,-319 -142,36 -144,144 -170,299 -20,122 -52,293 -60,409z"/>
   <path class="fil0" d="M2224 7468l789 48c-20,100 -46,153 0,255 29,64 85,114 170,131 291,59 346,-371 127,-489 -60,-32 -178,-37 -257,-41 -188,-9 -381,-22 -569,-34 13,-205 130,-176 228,-179l10 -143c-368,-54 -517,86 -498,452z"/>
   <path class="fil0" d="M2481 6697l529 235c-25,61 -68,70 -63,176 3,80 41,120 95,142 208,89 342,-231 137,-352l-499 -224 36 -343c50,14 129,55 176,77 29,14 60,25 91,40l86 44c-33,55 -84,105 -58,205 16,62 79,120 152,124 157,11 229,-223 132,-323 -66,-67 -264,-141 -362,-184l-379 -170c-1,2 -2,3 -3,6l-13 58c-16,138 -51,379 -57,489z"/>
   <path class="fil0" d="M5173 8935c-147,-23 -282,-73 -401,22 -93,75 -144,268 -137,347l749 158c-8,33 -31,67 -40,113 -21,120 35,255 167,283 225,47 296,-162 265,-303 -41,-190 -178,-191 -371,-238 -154,-37 -346,-75 -505,-103 37,-198 171,-149 246,-139l27 -140z"/>
   <path class="fil0" d="M9042 796l-17 339 -360 -131c99,-106 65,-305 -97,-317 -177,-14 -215,226 -135,319 63,73 642,253 772,307l29 -544c-7,-4 -7,-4 -16,-9 -41,-23 -211,-79 -253,-94l-270 -104c20,-48 65,-90 52,-177 -32,-210 -359,-197 -324,92 17,143 260,187 444,256 50,19 126,51 175,63z"/>
   <path class="fil0" d="M2175 10000l314 0c-26,-62 -306,-345 -390,-438 -13,-14 -43,-46 -51,-62l180 -319c31,12 5,-2 27,18 46,42 259,266 270,296 -168,56 -209,298 -39,373 162,73 337,-154 256,-303 -19,-35 -278,-315 -297,-333 -59,-54 -157,-171 -229,-240 -28,-27 -44,-58 -78,-77 -62,125 -253,430 -299,531 38,44 66,75 111,119 25,25 32,36 54,62l273 288c-13,16 -38,24 -57,36 -27,17 -31,21 -45,49z"/>
   <path class="fil0" d="M8500 5669c-24,-25 -45,-87 -126,-112 -232,-71 -328,258 -56,325 121,30 177,-73 232,-124 20,-17 46,-44 62,-62 21,-25 32,-37 55,-60 26,-28 37,-37 59,-64l118 -127c39,7 177,79 230,105 23,11 55,23 75,42l-264 263c-1,-1 -3,-3 -4,-5 -29,-43 -13,-24 -55,-61 -91,-80 -230,-48 -270,60 -51,138 132,287 278,215 62,-30 294,-312 373,-387 15,-14 21,-16 36,-34l136 -151c-22,-19 -200,-102 -242,-121l-245 -116c-20,13 -34,31 -51,48 -21,22 -24,34 -46,54 -55,52 -262,287 -295,312z"/>
   <path class="fil0" d="M4200 4186c-55,-26 -103,-52 -177,-24 -58,22 -89,50 -105,118 -35,141 106,219 236,181 156,-45 144,-258 184,-469 5,-26 22,-164 44,-182 19,-14 274,-42 317,-42l-62 365c-70,-16 -108,-52 -194,-13 -52,24 -101,75 -98,157 6,142 202,187 310,100 68,-55 90,-279 109,-390 23,-129 62,-296 74,-424 -90,5 -190,19 -281,34l-204 25c-38,3 -45,-3 -54,31l-80 466c-4,23 -7,48 -19,67z"/>
   <path class="fil0" d="M6921 5932c38,176 -14,179 -142,231l37 128c125,-23 264,-86 315,-168 87,-139 6,-261 -20,-395 -45,8 -136,39 -182,55 -59,19 -116,35 -176,54 -111,36 -246,84 -360,111 -6,-171 -106,-325 -298,-276 -262,67 -134,504 133,464 70,-10 386,-108 465,-135 58,-19 173,-60 228,-69z"/>
   <path class="fil0" d="M5596 1495c-71,25 -228,128 -288,143 -18,-38 -63,-304 -71,-363 190,25 272,-119 218,-237 -58,-126 -255,-89 -319,22 -44,77 14,310 34,408 17,81 56,360 84,411 67,-29 172,-85 233,-124 28,-17 84,-41 117,-59 45,-24 80,-39 116,-67l-101 -548c384,34 246,-468 -35,-281 -116,76 -82,172 -57,319 20,119 57,258 69,376z"/>
   <path class="fil0" d="M3434 3703l155 532c17,56 43,127 52,184 -90,-3 -168,25 -215,68 -185,171 26,525 315,300 23,-17 50,-51 66,-80 55,-100 -17,-267 -43,-364 -33,-124 -111,-348 -133,-450 217,-40 178,64 231,145l125 -34c-20,-133 -85,-263 -166,-317 -116,-78 -269,-10 -387,16z"/>
   <path class="fil0" d="M2675 8678c-53,190 -134,140 -236,128l-29 124c18,11 21,12 43,17l150 28c131,10 236,-51 284,-180 16,-45 43,-147 46,-195 -66,-41 -604,-121 -712,-167 -2,-23 68,-108 34,-227 -22,-78 -68,-128 -142,-150 -181,-54 -307,106 -269,285 37,172 177,199 355,229 154,26 321,78 476,108z"/>
   <path class="fil0" d="M7328 1088c-32,-81 -72,-144 15,-214 23,-19 43,-27 55,-42 -6,-20 -53,-94 -75,-111 -20,11 -19,14 -37,26l-108 77c-35,28 -86,92 -99,155 -23,111 22,196 81,276 22,29 31,51 55,77 65,-28 574,-399 608,-408 41,65 28,104 132,175 73,50 171,34 236,-9 212,-138 -8,-531 -302,-378l-185 123c-43,29 -334,242 -376,253z"/>
   <path class="fil0" d="M0 9210l0 790 89 0 -53 -517c67,-21 149,-67 216,-93l219 -93 54 535c-135,-27 -312,5 -345,168l503 0 -107 -1032c-42,8 -104,41 -148,60 -119,48 -330,150 -428,182z"/>
   <path class="fil0" d="M994 6894l-99 545c-54,-19 -107,-52 -181,-24 -45,16 -92,61 -102,112 -29,145 93,216 227,181 130,-34 128,-140 154,-278 23,-119 42,-246 67,-363 101,-5 225,-31 320,-37l-65 362c-64,-19 -106,-58 -192,-15 -128,63 -131,241 16,284 70,21 155,3 197,-33 69,-57 80,-266 104,-380l77 -418 -523 64z"/>
   <path class="fil0" d="M5252 6891c-85,51 -186,136 -273,174l-98 -349c308,2 255,-378 19,-316 -63,17 -117,63 -140,114 -35,75 51,311 76,396l110 393c39,-12 78,-45 112,-68l328 -220 -149 -528c149,-2 245,-85 212,-213 -35,-134 -184,-131 -282,-53 -149,119 42,417 85,670z"/>
   <path class="fil0" d="M3513 0l-249 0c5,58 41,396 62,421l731 132c-15,46 -30,50 -36,107 -4,42 -5,89 5,130 16,67 76,122 149,142 181,49 299,-124 251,-304 -45,-167 -192,-178 -371,-207 -84,-14 -165,-28 -248,-42 -82,-14 -170,-25 -250,-43l-44 -336z"/>
   <path class="fil0" d="M578 2177c11,27 75,114 98,147 19,25 32,52 49,74 41,55 235,328 253,371 -41,29 -116,33 -171,130 -88,156 33,352 218,310 67,-15 134,-78 169,-139 88,-153 -34,-266 -130,-419l-60 -86c-19,-28 -43,-61 -63,-91 -40,-63 -85,-121 -123,-182 25,-28 98,-55 147,-41 54,15 70,67 104,102 27,-9 79,-48 108,-65 -14,-53 -132,-222 -249,-247 -84,-17 -147,0 -206,35 -40,24 -122,72 -144,101z"/>
   <path class="fil0" d="M4726 2831c-8,17 -29,43 -39,56 -76,94 -171,18 -210,3 -23,28 -46,74 -61,110 30,34 238,144 360,92 74,-32 92,-55 132,-115 20,-30 80,-130 88,-166 -52,-13 -245,-128 -314,-162l-323 -164c30,-62 94,-91 95,-208 1,-284 -428,-296 -425,46 2,180 178,226 306,296 35,19 365,184 391,212z"/>
   <path class="fil0" d="M2628 6007l717 25c-13,81 -45,133 2,222 93,177 275,139 347,56 67,-77 70,-292 -77,-373 -59,-33 -158,-32 -232,-35 -172,-5 -349,-11 -521,-20 -3,-54 19,-108 46,-133 57,-54 79,-23 155,-37l5 -128c-347,-19 -456,72 -442,423z"/>
   <path class="fil0" d="M7998 8833c18,-55 51,-110 28,-182 -17,-54 -52,-91 -113,-103 -201,-41 -262,265 -70,340l503 127 19 318 -350 -87c29,-54 59,-118 25,-193 -23,-51 -71,-95 -148,-92 -149,4 -182,205 -95,304 33,39 112,55 177,69 105,22 513,136 579,140l-33 -512 -522 -129z"/>
   <path class="fil0" d="M973 5962c0,183 146,211 307,281l412 173c-11,48 -48,95 -84,107 -69,25 -103,-10 -154,-22 -20,24 -40,83 -51,114 56,48 256,110 367,55 94,-47 152,-191 184,-287 -52,-15 -108,-44 -163,-66l-488 -205c38,-56 80,-96 76,-197 -10,-262 -407,-293 -406,47z"/>
   <path class="fil0" d="M1381 8669c9,-28 164,-242 183,-254 17,18 34,50 50,71l160 204c-65,36 -111,48 -135,125 -26,82 18,154 65,181 126,71 289,-81 241,-218 -29,-84 -362,-480 -440,-590l-291 412 79 107c31,39 53,68 81,104l157 213c-111,35 -193,161 -101,277 55,70 210,66 271,-84 45,-108 -53,-201 -125,-293l-50 -65c-20,-27 -29,-34 -47,-61 -29,-42 -68,-85 -98,-129z"/>
   <path class="fil0" d="M3249 1595l-234 192c-18,-28 -127,-279 -138,-318 38,-23 98,-8 156,-90 81,-113 -29,-291 -191,-213 -160,76 -115,207 -56,333 41,87 209,499 229,520l285 -242c32,-28 70,-59 97,-87 -33,-64 -70,-164 -102,-239 -36,-83 -71,-159 -106,-243 8,-6 -5,-1 19,-9 8,-2 16,-4 25,-6 18,-4 25,-7 39,-13 239,-101 20,-450 -186,-225 -92,100 -8,221 34,325 27,66 122,259 129,315z"/>
   <path class="fil0" d="M10000 6448l0 -466c-231,4 -255,176 -323,356 -18,46 -29,77 -45,124 -15,41 -34,73 -49,121 -8,26 -76,224 -98,248 -210,-70 -113,-229 -102,-269 -25,-20 -100,-40 -137,-53 -17,80 -206,405 101,544 62,28 128,55 193,76l278 -756c41,13 47,31 83,49 27,12 68,24 99,26z"/>
   <path class="fil0" d="M4215 6014c-29,-40 -16,-95 -76,-138 -173,-125 -367,119 -156,265 110,76 227,-25 314,-67 55,-26 263,-144 297,-150 33,36 68,65 103,102 27,28 92,80 107,112 -17,24 -118,71 -149,86 -43,22 -117,67 -155,78 -17,-35 -21,-102 -101,-147 -66,-37 -137,-22 -182,23 -79,79 -18,215 45,252 117,67 152,23 280,-42 53,-26 113,-58 167,-87 55,-30 113,-57 166,-87 49,-28 123,-61 161,-91l-356 -356c-1,1 -433,235 -465,247z"/>
   <path class="fil0" d="M10000 2713l0 -430c-67,-23 -80,-33 -166,-40 -67,-5 -131,-12 -196,-17 -134,-9 -267,-30 -401,-34 1,-201 178,-159 209,-161l15 -131c-214,-32 -401,-15 -451,203 -9,42 -24,156 -20,199l728 66c-36,127 -50,182 24,282 23,32 52,56 105,72 71,21 89,7 153,-9z"/>
   <path class="fil0" d="M4795 4450c55,13 615,224 639,242 -103,135 -80,311 56,364 180,71 292,-79 276,-253 -16,-166 -169,-188 -311,-243 -113,-44 -311,-111 -406,-155 5,-42 48,-93 73,-106 60,-32 108,8 155,15 21,-26 42,-83 43,-118 -133,-50 -360,-139 -460,79 -22,48 -55,121 -65,175z"/>
   <path class="fil0" d="M7805 7773c38,10 69,34 105,56l321 179c13,0 328,-308 385,-353 18,53 54,94 107,114 131,51 251,-79 192,-192 -48,-89 -174,-159 -287,-56l-172 158c-21,19 -38,40 -58,57 -37,33 -80,76 -121,104 -37,-26 -86,-48 -127,-74l-133 -73c38,-41 85,-79 127,-119l123 -118c110,196 270,118 303,37 56,-134 -112,-267 -230,-214 -70,32 -317,288 -401,360 -31,28 -119,93 -134,134z"/>
   <path class="fil0" d="M2595 4957c3,31 151,441 167,463l517 -19c-15,58 -24,107 12,162 105,158 328,54 257,-142 -43,-120 -132,-117 -271,-112 -125,5 -247,13 -373,18 -17,-72 -92,-222 -97,-287l341 -15c-35,132 34,255 172,233 120,-18 142,-182 63,-272 -78,-90 -206,-52 -368,-46 -136,6 -286,17 -420,17z"/>
   <path class="fil0" d="M2852 4147c-102,112 -177,57 -244,-14 -20,10 -78,68 -88,90l57 61c200,172 285,150 461,-8l59 -61c-12,-16 -38,-39 -55,-56 -22,-22 -40,-40 -62,-62 -38,-37 -343,-328 -362,-366l10 -9c1,-1 3,-3 4,-4 42,-34 100,-63 122,-140 28,-97 -6,-178 -56,-222 -137,-119 -301,7 -339,141 -42,145 65,218 132,289l216 215c34,36 122,114 145,146z"/>
   <path class="fil0" d="M7206 2084c-11,42 -75,261 -91,282l-267 -185c-1,-1 -3,-3 -5,-4 14,-22 9,-11 28,-29 35,-33 56,-80 54,-133 -3,-67 -52,-125 -112,-136 -158,-26 -275,212 -88,327l326 228c48,32 155,112 189,123l142 -467c-53,-21 -333,-233 -422,-281l28 -29c88,-86 77,-206 -5,-255 -122,-73 -225,33 -232,152 -6,118 131,178 202,232l253 175z"/>
   <path class="fil0" d="M6619 6867c53,29 457,119 491,141 -21,56 -50,83 -30,167 25,105 166,144 241,62 34,-37 46,-103 36,-164 -19,-124 -156,-134 -246,-161 -59,-17 -288,-71 -318,-89 -17,-30 -19,-247 -17,-299l325 88c-20,55 -55,110 -26,182 22,52 66,94 140,92 134,-2 181,-189 98,-283 -45,-51 -254,-99 -343,-119 -65,-15 -328,-98 -369,-100l18 483z"/>
   <path class="fil0" d="M6461 2362c-20,23 -69,72 -116,75 -47,3 -103,-44 -124,-65l-77 97 132 101c186,108 305,4 409,-138l26 -45c-90,-54 -173,-137 -265,-202l-129 -102c-41,-34 -105,-74 -136,-106l16 -19c62,-60 149,-142 89,-275 -92,-203 -361,-128 -385,102 -10,95 37,164 83,200 15,13 24,15 41,29 74,60 420,323 436,348z"/>
   <path class="fil0" d="M1663 2159c-14,34 -52,78 -95,88 -60,14 -101,-22 -137,-45 -24,26 -50,60 -63,98 19,21 101,73 137,88 54,23 125,39 186,18 67,-23 92,-46 128,-94 21,-29 74,-106 86,-135 -14,-14 -505,-332 -551,-352 17,-28 88,-73 99,-171 11,-92 -24,-145 -86,-190 -203,-148 -431,216 -210,372 53,37 106,72 165,111 55,37 111,70 169,108l172 104z"/>
   <path class="fil0" d="M8855 7128c-37,97 -39,214 47,278 24,17 45,35 83,41 98,15 141,-15 183,-64 37,-43 48,-132 31,-197 -42,-156 -141,-164 -315,-177 -148,-11 -313,-31 -459,-35 -9,-50 17,-97 43,-122 37,-36 88,-20 145,-24l8 -118c-112,-16 -236,-14 -317,40 -79,53 -91,152 -101,280 -3,44 -12,47 27,52l270 19c116,10 241,21 355,27z"/>
   <path class="fil0" d="M5118 2900l308 297c27,24 30,16 45,52 -211,94 -77,370 92,276 42,-23 77,-67 91,-125 31,-121 -136,-230 -208,-300 -19,-19 -31,-35 -52,-56 -36,-35 -80,-69 -111,-106 8,-33 46,-102 63,-131 24,-41 35,-97 73,-125 10,12 13,14 25,27 62,67 149,129 201,201 -156,82 -121,238 -24,284 124,59 259,-117 195,-233 -31,-55 -76,-82 -115,-124l-370 -354c-2,1 -4,1 -4,4l-26 45c-46,102 -130,245 -183,368z"/>
   <path class="fil0" d="M7415 8617c-164,-83 -78,-180 -67,-225 -25,-21 -73,-37 -112,-49 -26,92 -177,313 55,443 44,24 110,58 158,71 13,-57 242,-529 256,-598 61,26 99,84 203,73 111,-10 190,-115 173,-221 -4,-28 -6,-27 -19,-50 -11,-19 -15,-26 -30,-39 -47,-44 -115,-74 -201,-69 -154,10 -191,168 -247,293 -26,59 -58,127 -82,186 -8,19 -70,169 -87,185z"/>
   <path class="fil0" d="M8695 0l-393 0 -9 104 757 77c-29,96 -63,224 38,316 13,12 62,46 84,54 175,60 290,-76 284,-236 -6,-172 -112,-248 -279,-262 -78,-6 -435,-36 -482,-53z"/>
   <path class="fil0" d="M5791 4567c9,32 212,388 232,407l472 -101c-27,320 409,221 246,-37 -65,-103 -170,-62 -290,-39 -67,12 -270,65 -315,60 -14,-16 -6,-7 -18,-29 -33,-65 -90,-148 -116,-213 18,-11 277,-65 315,-69 -16,185 128,227 207,186 116,-61 71,-229 -16,-279 -90,-52 -552,93 -717,114z"/>
   <path class="fil0" d="M7475 7675c-387,-138 -438,406 -69,339 172,-32 174,-167 185,-307 3,-33 29,-485 44,-454l22 -3c26,3 70,26 87,44 37,37 27,87 22,145l119 7c21,-267 2,-414 -358,-412l-52 641z"/>
   <path class="fil0" d="M1676 355c7,52 31,103 49,151l159 456c-181,13 -272,138 -225,264 55,146 212,154 325,50 126,-116 56,-225 4,-380 -24,-74 -128,-345 -135,-388 187,-24 143,18 201,113 31,-2 84,-19 107,-36 -20,-103 -80,-214 -149,-258 -102,-65 -239,-4 -336,28z"/>
   <path class="fil0" d="M8268 3124l464 123c0,2 -110,202 66,255 121,35 191,-85 166,-197 -35,-158 -332,-138 -539,-228l-8 -275c41,4 281,66 304,83 -25,46 -52,97 -23,164 50,118 205,122 249,-3 75,-216 -167,-243 -345,-287 -120,-30 -232,-64 -351,-91l17 456z"/>
   <path class="fil0" d="M2014 3954l-107 467c-45,-20 -83,-46 -151,-27 -47,13 -82,48 -96,96 -8,26 -10,52 1,80 6,18 26,48 36,56 42,34 194,73 254,-51 22,-44 33,-100 42,-151 9,-48 60,-279 75,-310 54,-23 207,-22 278,-27l-70 311c-109,-62 -253,-27 -252,110 1,124 179,170 262,94 56,-51 87,-232 105,-326 22,-118 61,-237 79,-355l-456 33z"/>
   <path class="fil0" d="M2007 3430c17,131 2,169 -122,195l32 110c101,-9 236,-85 268,-142 56,-99 20,-265 -23,-333l-605 188c-12,-405 -562,-247 -320,92 31,43 102,80 186,68 58,-8 144,-38 198,-56l386 -122z"/>
   <path class="fil0" d="M599 8662l308 361c17,18 35,43 49,59 17,20 41,46 52,67 -116,36 -223,202 -113,325 118,131 277,43 329,-88 36,-90 2,-148 -36,-204l-244 -295c-44,-51 -83,-103 -124,-149 24,-23 80,-53 126,-47 59,8 66,51 100,79 29,-12 71,-52 88,-73 -42,-39 -182,-302 -413,-138 -38,27 -99,69 -122,103z"/>
   <path class="fil0" d="M2584 3050c38,28 80,61 118,95l325 281c24,20 20,9 32,39 -134,54 -174,238 -48,340 134,109 284,-36 302,-161 13,-91 -29,-147 -70,-187 -43,-42 -97,-87 -144,-125l-143 -119c-25,-22 -44,-41 -69,-61l-55 -46c-16,-14 -8,-4 -19,-21 19,-23 69,-67 118,-65 46,2 84,46 114,63 20,-22 60,-68 71,-93 -55,-25 -228,-257 -431,-66 -19,18 -91,99 -101,126z"/>
   <path class="fil0" d="M6660 2759l25 482c-64,-5 -89,-20 -148,12 -138,74 -77,313 127,242 203,-72 56,-383 86,-599 54,-21 217,-91 262,-94l20 314c-66,-8 -114,-15 -161,24 -35,29 -72,70 -56,143 26,117 188,123 262,47 71,-74 38,-219 31,-338 -8,-126 -20,-263 -22,-389l-426 156z"/>
   <path class="fil0" d="M7866 4427c-21,-66 -93,-131 52,-215 -12,-45 -46,-51 -62,-99 -158,88 -275,222 -167,398 23,38 63,101 96,127 65,-35 451,-352 498,-374 33,72 51,109 117,143 145,75 310,-58 261,-200 -21,-62 -70,-114 -126,-141 -132,-63 -242,33 -361,131l-308 230z"/>
   <path class="fil0" d="M4836 8531c-69,89 -153,73 -225,-12 -13,14 -22,27 -36,41 -14,15 -26,24 -42,41 157,189 310,230 474,45 23,-26 40,-28 54,-65l-388 -370c-18,-14 -42,-36 -57,-53 27,-40 90,-46 123,-142 30,-87 -6,-166 -50,-205 -132,-114 -277,4 -312,134 -39,143 99,243 192,324l267 262z"/>
   <path class="fil0" d="M2620 542c-20,-139 -124,-187 -206,-151 -113,50 -87,178 -12,246 117,105 344,-76 560,-156 29,20 74,72 95,101 26,36 64,67 88,103 -26,17 -256,124 -284,130 -9,-122 -136,-214 -241,-126 -101,85 -1,251 103,260 95,9 519,-230 631,-262l-71 -85c-26,-29 -48,-56 -73,-82 -30,-32 -45,-53 -71,-82 -26,-30 -56,-57 -76,-88 -72,11 -386,179 -443,192z"/>
   <path class="fil0" d="M1937 5944c-32,-25 -69,-57 -130,-57 -58,-1 -105,36 -121,68 -60,117 48,208 160,201 109,-8 138,-121 181,-206 21,-41 42,-85 62,-130 20,-43 48,-89 64,-135 49,3 89,13 134,19 24,3 47,5 70,8l51 10c19,7 11,4 17,9l-133 270c-16,-7 -2,0 -15,-8 -7,-5 -11,-9 -18,-14 -93,-67 -221,-25 -233,84 -14,136 171,195 257,120 41,-35 187,-353 228,-441 24,-50 57,-99 73,-149l-438 -67 -104 208c-30,69 -75,146 -105,210z"/>
   <path class="fil0" d="M2986 2591l593 -179c9,78 23,140 64,183 148,153 439,-30 243,-273 -91,-112 -235,-55 -369,-12l-376 111c-31,-149 26,-160 119,-185 0,-33 -20,-82 -31,-111 -269,61 -356,178 -243,466z"/>
   <path class="fil0" d="M865 10000l1157 0c10,-107 -37,-202 -117,-259 -104,-74 -176,-40 -283,4 -124,51 -418,192 -522,228 -1,-2 -3,-5 -3,-6l-9 -16c-1,-3 -5,-15 -6,-18 -42,-147 83,-159 125,-195l-53 -113c-189,69 -323,146 -289,375z"/>
   <path class="fil0" d="M6647 3962l614 -69c-8,85 -13,118 29,186 113,181 414,49 303,-188 -65,-139 -158,-138 -338,-114 -130,17 -294,44 -425,48 -1,-128 34,-151 155,-162l-14 -112c-111,4 -232,27 -284,97 -77,101 -50,174 -40,314z"/>
   <path class="fil0" d="M3140 8414c16,42 97,260 99,292 -303,8 -272,365 -62,367 66,1 145,-46 174,-75 99,-99 32,-250 -15,-372 -24,-61 -44,-122 -66,-181l-55 -159c-5,-49 118,-24 138,-8 28,24 31,66 55,101l103 -31c-19,-106 -86,-216 -155,-258 -95,-59 -224,-2 -316,32 29,97 64,197 100,292z"/>
   <path class="fil0" d="M2703 8185c-19,49 -52,77 -31,151 46,157 298,120 251,-97 -23,-104 -132,-114 -226,-144 -69,-22 -221,-76 -283,-85l-1 -270c56,14 255,67 290,91 -20,59 -55,86 -22,165 19,47 58,85 126,81 142,-7 146,-207 85,-261 -50,-44 -360,-128 -463,-160 -39,-12 -135,-44 -167,-47l1 376c0,66 -7,63 51,77l290 88c29,9 82,22 99,35z"/>
   <path class="fil0" d="M4013 8498c51,28 106,79 195,66 221,-30 213,-376 -84,-354 -137,10 -174,159 -226,273l-151 348c-162,-52 -76,-186 -70,-211l-100 -44c-50,77 -98,230 -50,321 10,20 30,41 44,56 30,33 169,94 202,104 11,-51 39,-92 59,-140 55,-134 130,-285 181,-419z"/>
   <path class="fil0" d="M1522 4837l111 604c-393,-31 -296,500 42,319 147,-80 82,-254 67,-348 -21,-130 -61,-278 -72,-403 123,-13 157,27 168,140l115 -18c-23,-123 -36,-218 -115,-277 -101,-74 -192,-29 -316,-17z"/>
   <path class="fil0" d="M5233 5325l53 458c-308,-33 -231,353 5,239 107,-51 86,-119 74,-247 -10,-103 -34,-224 -37,-321 21,-19 209,-105 247,-110l37 298c-148,-21 -230,68 -196,180 33,106 199,96 257,20 59,-79 11,-238 1,-341 -12,-110 -36,-242 -40,-350 -23,-3 -355,152 -401,174z"/>
   <path class="fil0" d="M9010 4002l19 107c409,-55 297,-277 280,-433l-596 126c18,-217 -151,-291 -275,-225 -138,73 -69,299 50,350 90,39 457,-58 577,-86 46,-11 81,-42 83,20 3,109 -51,122 -138,141z"/>
   <path class="fil0" d="M9384 3308c-134,97 -199,-54 -207,-63 -37,18 -63,35 -94,60 12,5 56,92 75,114 36,41 55,65 118,89 27,11 63,10 94,8 76,-2 165,-84 214,-99 -13,-38 -57,-96 -79,-130l-118 -190c-17,-34 -21,-33 -42,-65l-78 -134c156,-25 220,-195 149,-291 -102,-138 -247,-71 -318,37 -88,135 63,291 141,425l97 157c17,31 38,48 48,82z"/>
   <path class="fil0" d="M2505 1598c-106,68 -157,20 -207,-56 -28,13 -62,39 -89,57 37,77 112,178 204,203 106,29 257,-69 293,-108 -18,-42 -55,-86 -82,-125l-250 -377c288,-85 163,-422 -42,-360 -50,15 -116,75 -137,117 -69,140 36,232 110,346 29,44 193,279 200,303z"/>
   <path class="fil0" d="M3940 4645l-118 438c-95,-58 -201,-44 -238,54 -41,108 74,188 184,163 148,-34 140,-352 220,-504l256 -9c0,32 -62,254 -77,287 -242,-121 -324,160 -148,215 199,62 225,-179 265,-328l87 -327 -431 11z"/>
   <path class="fil0" d="M7828 3845l4 -293c68,5 83,29 155,-11 34,-20 69,-62 63,-123 -9,-107 -151,-144 -235,-79 -81,62 -61,188 -63,315 -3,123 -8,246 -11,370l410 -112c19,-92 18,-346 16,-452 182,49 240,-75 212,-162 -41,-124 -226,-88 -266,-8 -31,64 -29,299 -30,387 -3,114 18,95 -83,123 -49,13 -125,38 -172,45z"/>
   <path class="fil0" d="M1633 7342l59 453c-304,-33 -223,356 12,232 164,-87 22,-308 28,-564l237 -107 39 297c-218,-36 -250,201 -117,249 78,28 163,-22 189,-68 36,-60 10,-160 2,-234l-44 -344c-6,-41 -1,-96 -33,-84 -93,38 -307,151 -372,170z"/>
   <path class="fil0" d="M3718 1895c-37,-15 -102,-148 -254,-101 -167,51 -151,310 60,344 140,23 185,-71 239,-129l291 -350c133,82 12,205 6,220 36,15 45,43 90,62 41,-62 141,-156 125,-278 -13,-102 -93,-148 -157,-204 -26,-22 -6,-12 -37,-23 -26,57 -294,356 -363,459z"/>
   <path class="fil0" d="M6846 9405c-22,-20 -54,-74 -46,-118 8,-43 53,-69 74,-94l-64 -78c-28,12 -42,26 -62,48 -42,47 -111,91 -115,191 -4,116 62,161 97,208 17,21 29,36 42,55l459 -388c44,117 200,206 316,87 151,-155 -111,-422 -300,-254 -21,19 -47,43 -66,57 -16,13 -21,12 -36,26l-69 61c-39,37 -196,181 -230,199z"/>
   <path class="fil0" d="M4144 6788c24,11 86,71 106,93l106 102c41,38 65,68 107,100 39,30 67,72 105,102 -34,41 -78,38 -114,131 -30,80 6,146 46,184 116,113 261,9 295,-112 48,-172 -184,-298 -306,-431 -44,-47 -95,-82 -128,-126 14,-23 59,-59 108,-56 52,3 70,38 98,63 19,-10 68,-58 74,-88 -74,-53 -139,-149 -264,-138 -93,9 -208,124 -233,176z"/>
   <path class="fil0" d="M8430 1331c14,40 22,93 0,129 -26,44 -58,36 -98,63l36 99c22,-8 45,-19 66,-26 297,-110 178,-284 136,-435 -76,26 -527,208 -559,207 -6,-283 -358,-257 -356,-53 0,64 44,135 73,164 94,94 247,28 358,-16 114,-46 229,-87 344,-132z"/>
   <path class="fil0" d="M6825 8321c14,-15 55,-60 61,-83 -104,-111 -282,-200 -401,-52 -28,35 -71,65 -90,106 74,66 147,128 223,190l226 188c-117,95 -162,216 -48,319 119,108 270,-20 287,-144 18,-135 -102,-202 -207,-291 -23,-19 -41,-39 -65,-57l-201 -166c13,-24 63,-66 105,-67 55,0 72,41 110,57z"/>
   <path class="fil0" d="M0 903l0 244 205 -268c55,84 208,195 356,106 125,-75 155,-219 48,-340 -82,-94 -268,-131 -376,-35 -40,35 -137,164 -174,218l-59 75z"/>
   <path class="fil0" d="M89 10000l91 0c33,-163 210,-195 345,-168l-54 -535 -219 93c-67,26 -149,72 -216,93l53 517z"/>
   <path class="fil0" d="M909 4093l579 -102c-22,395 478,265 308,-33 -70,-123 -178,-103 -335,-74 -65,12 -342,73 -387,66 -4,-46 -4,-91 25,-120 34,-35 69,-24 109,-45l-17 -103c-335,47 -316,181 -282,411z"/>
   <path class="fil0" d="M1645 1703c52,20 439,236 509,272 -9,15 -11,16 -24,32 -85,104 -60,234 31,286 144,84 255,-51 256,-185 1,-140 -142,-186 -243,-243 -101,-57 -214,-113 -312,-171 17,-36 38,-68 82,-81 52,-15 87,21 125,33l47 -91c-77,-55 -198,-109 -295,-73 -48,18 -78,47 -105,88 -12,19 -24,39 -37,63 -6,13 -9,19 -15,30 -6,12 -13,22 -19,40z"/>
   <path class="fil0" d="M7756 2200c11,40 38,87 54,129 38,103 149,329 169,404 -127,6 -245,113 -186,251 59,136 221,110 304,21 108,-117 -24,-323 -100,-510 -21,-51 -57,-118 -70,-173 155,-22 120,-11 188,93l90 -32c4,-30 -33,-106 -52,-136 -58,-95 -147,-140 -258,-106 -25,8 -126,49 -139,59z"/>
   <path class="fil0" d="M5032 7715c-151,-70 -61,-165 -52,-208 -37,-11 -55,-24 -88,-40 -50,47 -167,287 18,392 30,18 104,53 125,68l69 -123c26,-58 184,-359 204,-378 87,83 247,107 311,-22 83,-167 -137,-306 -285,-216 -63,38 -178,285 -222,370 -26,52 -61,107 -80,157z"/>
   <path class="fil0" d="M6353 10000l391 0c-6,-97 -53,-127 -103,-172l-480 -343c59,-137 215,-79 242,-29 26,-29 56,-65 75,-104 -82,-38 -181,-163 -327,-124 -63,17 -109,52 -141,90 -24,30 -84,108 -97,140l140 97c16,11 18,15 34,27l103 74c70,52 212,145 268,196 -44,38 -86,66 -105,148z"/>
   <path class="fil0" d="M3707 1354c-26,19 -82,29 -116,9 -38,-22 -38,-57 -68,-94l-95 37c13,40 37,91 59,130 108,199 280,88 390,52 -6,-46 -203,-464 -217,-526 267,-31 235,-342 48,-346 -66,-1 -128,43 -158,72 -106,107 -24,221 19,342l138 324z"/>
   <path class="fil0" d="M2664 10000l426 0c-7,-66 -94,-593 -80,-604 16,-12 7,-9 36,-9 109,-3 139,60 149,168l120 -14c14,-40 -10,-140 -24,-186 -81,-256 -311,-179 -446,-169l98 693c-138,-15 -239,28 -279,121z"/>
   <path class="fil0" d="M4830 2337c-81,-67 -172,-78 -224,15 -56,101 48,183 146,176 99,-8 128,-112 164,-189l117 -237 243 37 -122 252c-104,-94 -222,-48 -239,49 -22,128 167,177 236,110 19,-18 258,-486 265,-535l-399 -56c-25,60 -162,356 -187,378z"/>
   <path class="fil0" d="M9046 8478c-62,-14 -101,-37 -171,-10 -44,17 -93,62 -104,111 -30,144 78,215 216,192 135,-23 145,-124 160,-263 14,-128 33,-264 39,-392 134,-7 125,97 119,163l95 8c42,-81 17,-229 -35,-282 -35,-36 -48,-47 -108,-62 -36,-9 -118,-23 -154,-18l-57 553z"/>
   <path class="fil0" d="M6921 10000l125 0 11 -135 410 -87 -18 222 126 0 45 -495 -658 139c-2,2 -3,4 -3,6l-21 173c-4,61 -12,118 -17,177z"/>
   <path class="fil0" d="M5479 2260l274 202c36,29 152,101 169,134 -18,15 -75,40 -94,131 -16,76 21,130 60,162 165,137 381,-150 202,-302 -79,-67 -308,-231 -404,-302 54,-117 179,-53 194,-21 38,-27 38,-47 62,-79 -59,-47 -143,-137 -261,-111 -99,22 -145,95 -202,186z"/>
   <path class="fil0" d="M7045 0l-124 0 -34 357c-32,0 -102,-52 -208,-16 -223,74 -198,395 75,389 184,-3 230,-111 246,-261 17,-150 38,-318 45,-469z"/>
   <path class="fil0" d="M829 8141c-58,-146 -208,-165 -284,-88 -111,112 -14,241 91,280 127,48 235,-88 294,-142 22,-20 40,-29 64,-51 43,-40 157,-149 194,-167 13,33 46,60 36,111 -6,31 -48,61 -65,85 9,22 8,17 27,38l23 23c9,9 3,4 14,11 66,-47 152,-129 156,-218 5,-120 -84,-183 -133,-244 -98,79 -361,330 -417,362z"/>
   <path class="fil0" d="M3262 10000l1072 0c-23,-79 -119,-113 -220,-128 -100,-16 -199,-36 -297,-52 -195,-33 -400,-75 -591,-100l36 280z"/>
   <path class="fil0" d="M10000 8683l0 -156c-44,19 -91,55 -132,80 -38,22 -95,64 -139,81 -41,-258 -357,-274 -427,-86 -49,131 77,280 178,309 134,38 247,-62 355,-129 28,-18 53,-35 81,-50 33,-17 51,-32 84,-49z"/>
   <path class="fil0" d="M422 6792c47,-11 399,-207 486,-246 32,51 13,99 81,142 126,81 264,-6 256,-124 -9,-115 -137,-223 -255,-174 -88,37 -401,218 -461,236 -43,-176 3,-114 76,-188l-44 -83c-77,24 -177,93 -203,157 -48,119 33,199 64,280z"/>
   <path class="fil0" d="M0 3886l0 126c31,-36 41,-69 77,-97 38,-28 69,-41 131,-41 56,0 92,15 131,41 17,11 36,23 49,35 19,19 21,32 47,51l138 -198c30,-41 131,-165 142,-195 -22,-17 -360,-128 -407,-137 -45,54 -280,394 -308,415z"/>
   <path class="fil0" d="M7600 5953c-92,-82 -233,-73 -288,36 -89,173 208,331 327,134l198 -463c39,9 75,36 86,71 12,38 -8,80 -21,113l89 36c38,-52 90,-199 41,-281 -28,-46 -40,-62 -90,-87 -33,-16 -94,-47 -126,-55 -40,71 -191,469 -216,496z"/>
   <path class="fil0" d="M1271 5297c-76,36 -144,97 -194,120l-13 -27c-16,-45 -64,-204 -61,-233 149,4 179,-118 137,-189 -55,-89 -203,-39 -233,47 -21,59 40,235 59,296 27,88 49,209 82,287 14,-8 21,-15 34,-23l128 -80c28,-19 48,-33 78,-53l71 -45c14,-11 5,-4 14,-12l-110 -392c278,-6 153,-360 -49,-202 -118,93 37,311 57,506z"/>
   <path class="fil0" d="M4672 1272l45 540c-67,-5 -122,-7 -170,27 -155,110 -41,351 165,265 126,-53 119,-131 107,-285 -10,-126 -27,-257 -33,-384 116,2 129,30 141,137 31,3 75,1 97,-10 -7,-262 -90,-321 -352,-290z"/>
   <path class="fil0" d="M7199 1761c48,35 311,166 359,201 -14,32 -53,51 -53,115 0,48 34,89 65,106 100,56 183,-50 172,-141 -10,-77 -118,-132 -180,-158l-223 -123 42 -231c71,35 176,91 239,133 -26,24 -60,75 -49,136 8,44 50,88 99,93 123,15 174,-146 103,-219 -42,-42 -483,-277 -505,-284l-69 372z"/>
   <path class="fil0" d="M7998 1785c16,48 67,126 93,170 34,55 61,115 92,167l401 -83c-6,290 351,155 203,-33 -66,-85 -122,-56 -236,-32 -81,17 -188,46 -266,55l-116 -208 264 -55c-4,62 12,104 45,133 34,32 81,49 134,21 105,-56 44,-202 -16,-231 -68,-34 -229,18 -298,32 -99,22 -200,43 -300,64z"/>
   <path class="fil0" d="M4821 4885c9,38 26,86 38,125l123 382c-12,9 -255,39 -193,226 42,126 177,121 273,51 161,-117 -83,-496 -92,-651 168,-31 125,50 170,98l89 -23c-32,-107 -50,-179 -126,-227 -88,-55 -199,-5 -282,19z"/>
   <path class="fil0" d="M7574 0l-126 0 -22 250c-60,-1 -86,-49 -196,-19 -59,16 -114,60 -136,102 -74,138 22,272 147,287 100,12 216,-20 256,-92 16,-28 28,-57 35,-89 23,-106 36,-324 42,-439z"/>
   <path class="fil0" d="M4615 5253c-142,21 -119,-20 -161,-106l-92 20c14,98 56,195 115,233 64,43 204,29 274,-8l-132 -513c68,-11 113,-10 158,-49 28,-24 62,-89 49,-148 -33,-149 -177,-137 -263,-81 -111,72 -71,186 -35,318 29,108 62,226 87,334z"/>
   <path class="fil0" d="M6599 1374c-63,-9 -113,-19 -167,12 -158,88 -70,348 143,273 122,-42 130,-121 123,-267 -6,-115 -16,-267 -10,-381 134,-7 124,70 131,140l93 -1c25,-86 -19,-214 -60,-256 -59,-58 -163,-60 -267,-54l14 534z"/>
   <path class="fil0" d="M0 2941l0 231c35,-21 190,-267 225,-316 15,-20 34,-42 47,-61 23,-32 59,-96 90,-125 171,108 41,226 27,264 48,15 66,53 114,69 19,-54 62,-89 92,-146 30,-55 51,-136 32,-207 -31,-109 -166,-210 -244,-249l-92 136c-32,47 -65,84 -96,135l-143 203c-21,32 -25,45 -52,66z"/>
   <path class="fil0" d="M5386 6677c37,21 63,46 102,73l214 156c31,22 77,61 110,75 -20,33 -71,51 -89,135 -15,69 18,122 54,153 154,131 368,-127 190,-290l-319 -234c-15,-11 -20,-13 -32,-22l-33 -31c112,-109 92,-52 196,-12 12,-29 34,-55 50,-80 -56,-38 -146,-128 -254,-101 -85,21 -153,111 -189,178z"/>
   <path class="fil0" d="M8428 8405c-31,-27 -73,-68 -136,-74 -207,-19 -259,289 0,310 130,11 172,-101 233,-208 43,-77 133,-209 165,-282 30,9 68,43 76,76 13,54 -24,75 -35,113l85 48c35,-90 174,-225 -6,-368 -23,-18 -87,-61 -117,-66 -39,78 -85,148 -129,225l-136 226z"/>
   <path class="fil0" d="M5192 3802c-112,48 -128,42 -180,-44l-83 57c203,305 312,136 436,74 -6,-32 -15,-40 -32,-61l-116 -160c-51,-72 -105,-144 -154,-214 18,-15 46,-22 69,-37 19,-13 40,-38 54,-62 32,-52 21,-129 -9,-171 -26,-36 -86,-74 -155,-54 -55,17 -103,61 -124,107 -56,124 41,207 104,299l190 266z"/>
   <path class="fil0" d="M6014 793c-4,121 49,282 56,400 -262,-35 -203,309 6,206 86,-43 80,-121 58,-226 -15,-75 -28,-193 -37,-275 73,-25 141,-72 211,-98l38 261c-68,4 -91,-6 -135,35 -31,28 -47,74 -28,130 33,98 184,61 227,-1 44,-63 -5,-208 -12,-285 -10,-97 -36,-206 -42,-306l-174 79c-56,27 -110,58 -168,80z"/>
   <path class="fil0" d="M8210 5223c-111,6 -129,-18 -145,-119l-91 8c-13,88 42,204 87,242 79,67 169,35 272,23l-80 -522c121,0 236,-31 225,-178 -10,-123 -138,-158 -249,-102 -172,87 -39,354 -19,648z"/>
   <path class="fil0" d="M2511 1962c22,77 158,449 156,495 -115,5 -229,88 -182,219 43,119 181,117 268,38 101,-92 39,-187 4,-310 -20,-70 -94,-269 -102,-318 113,-17 141,-1 158,101l95 -31c-29,-151 -114,-271 -266,-237 -29,6 -111,30 -131,43z"/>
   <path class="fil0" d="M10000 4605l0 -222 -114 -44 -211 539c-54,-16 -80,-67 -175,-56 -217,25 -208,365 77,333 139,-16 160,-147 208,-262l126 -320c1,-2 5,-8 6,-10l6 -8c36,18 51,27 77,50z"/>
   <path class="fil0" d="M0 1934l0 187 217 61c9,-27 22,-37 35,-60l263 -398c37,29 63,78 146,87 223,24 257,-306 -7,-321 -123,-6 -196,142 -243,220 -33,56 -160,229 -186,284l-225 -60z"/>
   <path class="fil0" d="M10000 1161l0 -244c-71,66 -144,197 -210,281l-21 20c-36,-15 -87,-75 -92,-134 -6,-77 58,-105 70,-154l-83 -55c-4,-3 -12,-9 -14,-10 -20,-13 22,14 -11,-6l-11 -7c-12,22 -35,51 -54,76 -20,26 -33,48 -52,79 -66,112 -66,260 26,353l190 146c59,-76 227,-310 262,-345z"/>
   <path class="fil0" d="M0 7476l0 121 96 -39c21,37 78,95 115,139 25,30 108,106 121,134 -34,28 -120,62 -165,82l-167 74 0 124 155 -71c90,-47 427,-189 454,-217 -27,-37 -68,-70 -99,-111l-302 -326 -208 90z"/>
   <path class="fil0" d="M10000 3900l0 -217c-36,36 -72,91 -98,133l-53 -58c-16,-16 -40,-32 -63,-44 -256,-136 -476,219 -195,364 257,133 345,-127 409,-178z"/>
   <path class="fil0" d="M1918 6913c-46,-95 -202,-131 -273,-30 -80,116 30,229 140,240 124,12 185,-117 239,-184l181 -239c27,10 58,45 61,86 3,40 -29,70 -42,99 16,7 51,37 66,52 70,-47 176,-233 45,-348 -26,-23 -73,-64 -107,-75 -22,32 -44,62 -70,98l-222 288c-17,15 12,-3 -18,13z"/>
   <path class="fil0" d="M8977 6492c-9,-2 -206,-103 -261,70 -41,129 74,206 199,184 111,-18 135,-130 160,-240 24,-104 57,-213 84,-316 138,35 90,128 86,165l85 23c15,-103 71,-157 1,-263 -38,-58 -127,-96 -216,-104 -23,37 -51,189 -66,237 -13,44 -57,221 -72,244z"/>
   <path class="fil0" d="M6830 4239c0,98 -29,124 -125,128l9 91c226,-8 317,-97 267,-320 -39,-20 -418,38 -497,42 6,-67 8,-118 -27,-160 -112,-134 -327,-31 -236,167 52,115 128,97 266,86 109,-9 236,-35 343,-34z"/>
   <path class="fil0" d="M6109 6377c-15,97 -55,102 -149,91l-12 90c120,15 156,37 252,-28 57,-39 73,-129 77,-222 -28,-14 -427,-71 -481,-74 13,-53 36,-103 10,-163 -19,-44 -57,-77 -107,-87 -129,-27 -184,95 -159,199 26,112 113,127 237,140 65,7 290,33 332,54z"/>
   <path class="fil0" d="M7366 3412c-41,-57 -208,-97 -267,34 -52,118 61,204 177,197 117,-6 143,-121 187,-219 40,-90 79,-202 123,-284 24,12 57,30 70,58 19,43 -6,71 -13,110l80 37c87,-202 85,-308 -160,-389 -47,98 -161,396 -197,456z"/>
   <path class="fil0" d="M10000 7602l0 -121 -361 165c-13,-22 -16,-63 -28,-88 -125,-267 -500,-72 -296,189 157,202 432,-73 685,-145z"/>
   <path class="fil0" d="M10000 462l0 -462 -50 0 6 68c-194,-42 -371,56 -354,255 16,205 231,227 398,139z"/>
   <path class="fil0" d="M2269 4948c-25,-12 -49,-47 -49,-86 1,-40 28,-65 46,-85 -15,-22 -44,-43 -66,-58 -44,48 -122,120 -113,219 9,90 76,125 102,150 19,18 26,28 50,41l234 -272c27,-30 50,-65 81,-93 21,16 53,74 110,88 78,19 122,-10 156,-48 123,-143 -127,-331 -260,-191 -66,70 -160,193 -237,279 -29,33 -28,43 -54,56z"/>
   <path class="fil0" d="M9439 5347c7,90 102,356 117,474 -110,-2 -218,71 -185,192 16,55 40,78 93,93 59,15 114,-11 151,-37 145,-102 -17,-345 -50,-594 104,-8 124,11 143,103l88 -21c-9,-85 -51,-180 -102,-212 -84,-53 -161,-13 -255,2z"/>
   <path class="fil0" d="M10000 3186l0 -231 -28 34c-39,-27 -3,-28 -109,-90 -45,-26 -101,-41 -159,-26 -154,38 -225,234 -99,345 76,66 190,106 292,56 60,-30 62,-47 103,-88z"/>
   <path class="fil0" d="M5969 5414c-36,-41 -53,-88 -11,-133l37 -35c-15,-25 -33,-44 -46,-64 -30,12 -75,53 -94,73 -115,117 -37,241 54,326l86 -71c65,-52 224,-189 282,-227 32,98 153,163 248,81 94,-81 12,-203 -70,-242 -117,-56 -255,110 -370,201 -35,28 -80,68 -116,91z"/>
   <path class="fil0" d="M4707 0l-144 0c37,89 197,301 224,380 -42,13 -86,46 -143,23 -37,-15 -66,-54 -79,-98 -33,7 -36,11 -62,29 -9,7 -16,11 -22,16 -22,14 -11,0 -26,22 41,49 159,338 402,208 40,-22 112,-69 145,-78 -7,-34 -48,-94 -69,-127l-189 -311c-16,-28 -23,-33 -37,-64z"/>
   <path class="fil0" d="M8282 2542l468 -64c-4,59 0,111 31,149 108,131 318,11 216,-170 -58,-104 -131,-79 -259,-65 -95,10 -223,25 -313,44 -8,-39 -2,-79 19,-100 27,-27 58,-19 89,-36l-11 -76c-300,5 -250,189 -240,318z"/>
   <path class="fil0" d="M6701 5511c-45,-17 -67,-52 -138,-46 -181,16 -171,293 50,271 167,-17 180,-295 280,-487 73,22 98,82 57,155 18,13 56,27 81,32 34,-54 66,-165 27,-240 -36,-71 -106,-88 -189,-119 -18,28 -161,396 -168,434z"/>
   <path class="fil0" d="M4555 10000l145 0c-12,-36 -27,-45 -41,-78 327,-90 202,-429 3,-408 -102,11 -197,103 -215,195 -25,127 79,202 108,291z"/>
   <path class="fil0" d="M6142 3164c-32,-20 -59,-64 -142,-60 -183,8 -183,282 46,271 96,-5 139,-103 185,-198 20,-42 43,-85 65,-127 10,-18 20,-40 31,-62 12,-27 25,-39 33,-67 113,63 65,104 46,164 13,13 15,13 33,22 14,8 24,11 38,15 42,-41 84,-161 56,-232 -25,-66 -106,-113 -176,-140l-215 414z"/>
   <path class="fil0" d="M0 8520l0 158c29,-11 161,-100 215,-129 31,31 52,102 34,154 -17,48 -66,60 -107,92 18,44 44,70 65,112 303,-140 329,-325 139,-591 -46,10 -268,174 -346,204z"/>
   <path class="fil0" d="M3823 5785c136,-42 279,-132 415,-177 2,2 3,2 3,5l23 62c118,211 390,3 197,-167 -132,-117 -399,120 -545,139 -19,-117 -8,-107 74,-147 -9,-36 -19,-49 -27,-80 -134,35 -231,123 -192,256 8,29 30,85 52,109z"/>
   <path class="fil0" d="M7878 10000l130 0c-7,-37 -34,-79 -48,-116 408,-66 187,-572 -115,-323 -156,129 -5,320 33,439z"/>
   <path class="fil0" d="M3615 6758c-21,-15 -44,-30 -49,-68 -6,-45 20,-63 33,-90 -15,-20 -43,-38 -68,-45 -204,211 19,366 76,375l129 -187c30,-44 97,-158 134,-182 38,88 177,112 243,21 76,-105 -28,-205 -129,-212 -82,-5 -119,38 -165,111 -32,51 -175,252 -204,277z"/>
   <path class="fil0" d="M3905 1285c89,39 361,25 440,62 10,9 -68,172 81,220 116,37 175,-51 163,-165 -12,-113 -99,-126 -212,-138 -106,-12 -213,-32 -318,-37 8,-93 43,-105 134,-97l11 -76c-68,-31 -178,-21 -229,21 -49,39 -67,123 -70,210z"/>
   <path class="fil0" d="M8012 0l-130 0c21,66 135,287 143,339 -97,17 -153,47 -205,-103 -39,10 -86,28 -111,49 43,103 84,199 175,247 120,63 235,-18 334,-55 -16,-73 -168,-373 -206,-477z"/>
   <path class="fil0" d="M4337 0l-355 0c-30,81 -56,154 -11,244 35,67 78,120 183,123 197,7 251,-193 183,-367z"/>
   <path class="fil0" d="M3130 4679c-85,-6 -106,-39 -101,-124l-81 -5c-4,150 -6,300 257,272l18 -437c72,9 195,29 214,-102 16,-105 -77,-159 -174,-136 -111,26 -113,94 -120,214 -6,105 -11,213 -13,318z"/>
   <path class="fil0" d="M4684 983c-102,-67 -5,-148 0,-160 -22,-24 -36,-31 -52,-54 -61,37 -177,184 -68,297 16,16 23,25 38,40l44 35c67,-57 256,-286 302,-318 73,165 325,79 254,-86 -25,-58 -145,-138 -244,-48 -91,83 -189,206 -274,294z"/>
   <path class="fil0" d="M8962 1717c-41,-48 -53,-116 27,-144 -7,-31 -21,-51 -51,-72 -36,36 -121,73 -134,163 -13,87 56,166 96,204l260 -200c33,-27 60,-43 86,-65 16,21 97,187 226,85 98,-77 32,-181 -48,-227 -99,-57 -196,54 -248,92l-214 164z"/>
   <path class="fil0" d="M7392 2894c-81,-14 -87,-52 -76,-134l-79 -8c-10,80 -29,159 21,220 36,44 118,68 168,70l30 -4 67 -417c49,14 83,36 141,12 146,-61 92,-279 -98,-236 -168,38 -105,368 -174,497z"/>
   <path class="fil0" d="M0 7035l0 100 364 -85c-1,78 4,109 45,157 119,141 356,2 231,-200 -71,-115 -171,-81 -306,-50 -110,25 -226,51 -334,78z"/>
   <path class="fil0" d="M10000 8115l0 -124 -48 20c-16,-278 -360,-270 -372,-64 -7,106 70,194 135,223 125,55 195,-36 285,-55z"/>
   <path class="fil0" d="M1986 5409c-32,-90 -17,-99 44,-147l-34 -64c-55,18 -142,88 -157,149 -18,77 45,159 76,206 76,-41 314,-211 364,-228 26,61 23,71 71,101 157,98 276,-130 115,-222 -51,-30 -91,-26 -142,-4 -32,14 -83,51 -114,71 -45,29 -186,128 -223,138z"/>
   <path class="fil0" d="M683 0l-506 0c-52,324 307,322 433,194 47,-48 71,-98 73,-194z"/>
   <path class="fil0" d="M3092 0l-433 0c-56,156 36,294 203,278 73,-7 139,-41 174,-80 51,-57 60,-102 56,-198z"/>
   <path class="fil0" d="M0 1581l0 178c48,-44 69,-123 117,-159 31,52 147,128 237,69 69,-44 120,-140 51,-227 -47,-60 -173,-97 -249,-56 -36,20 -55,55 -80,90 -11,16 -23,36 -33,51 -9,13 -11,18 -19,28l-24 26z"/>
   <path class="fil0" d="M0 6449c153,7 270,-85 273,-234 2,-149 -127,-225 -273,-233l0 467z"/>
   <path class="fil0" d="M2495 0l-327 0c-35,63 -62,110 -30,200 20,54 84,111 162,111 83,0 130,-56 164,-100 51,-65 56,-122 31,-211z"/>
   <path class="fil0" d="M8304 10000l299 0 -51 -15c2,-55 28,-114 62,-140 51,-38 96,-20 162,-16l14 -140c-249,-12 -448,-59 -486,311z"/>
   <path class="fil0" d="M6744 0l-395 0c-61,326 396,354 395,0z"/>
   <path class="fil0" d="M0 7597l0 390 167 -74c45,-20 131,-54 165,-82 -13,-28 -96,-104 -121,-134 -37,-44 -94,-102 -115,-139l-96 39z"/>
   <path class="fil0" d="M10000 2120l0 -523c-2,1 -4,1 -5,4 0,3 -3,3 -4,4 -5,5 -6,6 -11,13 -7,9 -12,17 -19,28l-183 278c-16,21 -63,90 -71,115 94,17 208,68 293,81z"/>
   <path class="fil0" d="M4957 10000l399 0c-12,-294 -426,-305 -399,0z"/>
   <polygon class="fil0" points="7046,10000 7449,10000 7467,9778 7057,9865 "/>
   <path class="fil0" d="M10000 7137l0 -328c-78,10 -138,56 -165,117 -28,63 -9,186 19,242l146 -31z"/>
   <path class="fil0" d="M0 4760c35,8 53,21 85,31 34,-36 69,-177 59,-244 -10,-75 -78,-142 -144,-160l0 373z"/>
   <path class="fil0" d="M2018 0l-398 0c22,73 101,144 195,146 103,2 184,-62 203,-146z"/>
  </g>
 </g>
</svg>
